<?xml version="1.0" encoding="UTF-8" standalone="no"?>
<svg viewBox="0 0 50 50"
 xmlns="http://www.w3.org/2000/svg" xmlns:xlink="http://www.w3.org/1999/xlink"  version="1.2" baseProfile="tiny">
<title>Qt SVG Document</title>
<desc>Generated with Qt</desc>
<defs>
</defs>
<g fill="none" stroke="black" stroke-width="1" fill-rule="evenodd" stroke-linecap="square" stroke-linejoin="bevel" >

<g fill="#ffffff" fill-opacity="1" stroke="none" transform="matrix(2.27273,0,0,2.27273,0.0236528,-129.522)"
font-family="Noto Sans" font-size="10" font-weight="400" font-style="normal" 
opacity="0.2" >
<path vector-effect="none" fill-rule="evenodd" d="M-0.0104072,61.9396 C-0.0104072,59.2058 2.20578,56.9896 4.93959,56.9896 L17.0396,56.9896 C19.7734,56.9896 21.9896,59.2058 21.9896,61.9396 L21.9896,74.0396 C21.9896,76.7734 19.7734,78.9896 17.0396,78.9896 L4.93959,78.9896 C2.20578,78.9896 -0.0104072,76.7734 -0.0104072,74.0396 L-0.0104072,61.9396"/>
</g>

<g fill="#ffffff" fill-opacity="1" stroke="none" transform="matrix(1.60706,1.60706,-1.60706,1.60706,50.0237,-127.249)"
font-family="Noto Sans" font-size="10" font-weight="400" font-style="normal" 
>
<rect x="31.5833" y="54.6543" width="16" height="1"/>
</g>

<g fill="#ffffff" fill-opacity="1" stroke="none" transform="matrix(-1.60706,1.60706,1.60706,1.60706,50.0237,-127.249)"
font-family="Noto Sans" font-size="10" font-weight="400" font-style="normal" 
>
<rect x="47.1543" y="39.0833" width="16" height="1"/>
</g>

<g fill="none" stroke="#000000" stroke-opacity="1" stroke-width="1" stroke-linecap="square" stroke-linejoin="bevel" transform="matrix(1,0,0,1,0,0)"
font-family="Noto Sans" font-size="10" font-weight="400" font-style="normal" 
>
</g>
</g>
</svg>
