<?xml version="1.0" encoding="UTF-8" standalone="no"?>
<svg viewBox="0 0 50 50"
 xmlns="http://www.w3.org/2000/svg" xmlns:xlink="http://www.w3.org/1999/xlink"  version="1.2" baseProfile="tiny">
<title>Qt SVG Document</title>
<desc>Generated with Qt</desc>
<defs>
</defs>
<g fill="none" stroke="black" stroke-width="1" fill-rule="evenodd" stroke-linecap="square" stroke-linejoin="bevel" >

<g fill="#ffffff" fill-opacity="1" stroke="none" transform="matrix(2.27273,0,0,2.27273,0,-61.3636)"
font-family="Noto Sans" font-size="10" font-weight="400" font-style="normal" 
opacity="0.1" >
<path vector-effect="none" fill-rule="evenodd" d="M0,31.95 C0,29.2162 2.21619,27 4.95,27 L17.05,27 C19.7838,27 22,29.2162 22,31.95 L22,44.05 C22,46.7838 19.7838,49 17.05,49 L4.95,49 C2.21619,49 0,46.7838 0,44.05 L0,31.95"/>
</g>

<g fill="#ffffff" fill-opacity="1" stroke="none" transform="matrix(1.60706,1.60706,-1.60706,1.60706,50.0237,-62.947)"
font-family="Noto Sans" font-size="10" font-weight="400" font-style="normal" 
>
<rect x="11.5772" y="34.6482" width="16" height="1"/>
</g>

<g fill="#ffffff" fill-opacity="1" stroke="none" transform="matrix(-1.60706,1.60706,1.60706,1.60706,50.0237,-62.947)"
font-family="Noto Sans" font-size="10" font-weight="400" font-style="normal" 
>
<rect x="27.1482" y="19.0772" width="16" height="1"/>
</g>

<g fill="none" stroke="#000000" stroke-opacity="1" stroke-width="1" stroke-linecap="square" stroke-linejoin="bevel" transform="matrix(1,0,0,1,0,0)"
font-family="Noto Sans" font-size="10" font-weight="400" font-style="normal" 
>
</g>
</g>
</svg>
