<?xml version="1.0" encoding="UTF-8" standalone="no"?>
<svg viewBox="0 0 50 50"
 xmlns="http://www.w3.org/2000/svg" xmlns:xlink="http://www.w3.org/1999/xlink"  version="1.2" baseProfile="tiny">
<title>Qt SVG Document</title>
<desc>Generated with Qt</desc>
<defs>
</defs>
<g fill="none" stroke="black" stroke-width="1" fill-rule="evenodd" stroke-linecap="square" stroke-linejoin="bevel" >

<g fill="none" stroke="none" transform="matrix(2.27273,0,0,2.27273,52.2727,-68.1818)"
font-family="Noto Sans" font-size="10" font-weight="400" font-style="normal" 
>
<rect x="-23" y="30" width="22" height="22"/>
</g>

<g fill="#ffffff" fill-opacity="1" stroke="none" transform="matrix(2.27273,0,0,2.27273,52.2727,-68.1818)"
font-family="Noto Sans" font-size="10" font-weight="400" font-style="normal" 
opacity="0.1" >
<path vector-effect="none" fill-rule="evenodd" d="M-23,34.95 C-23,32.2162 -20.7838,30 -18.05,30 L-5.95,30 C-3.21619,30 -1,32.2162 -1,34.95 L-1,47.05 C-1,49.7838 -3.21619,52 -5.95,52 L-18.05,52 C-20.7838,52 -23,49.7838 -23,47.05 L-23,34.95"/>
</g>

<g fill="#ffffff" fill-opacity="1" stroke="none" transform="matrix(2.27273,0,0,2.27273,52.2727,0)"
font-family="Noto Sans" font-size="10" font-weight="400" font-style="normal" 
>
<path vector-effect="none" fill-rule="nonzero" d="M-19,8 L-19,16 L-7,16 L-7,8 L-19,8 M-18,9 L-8,9 L-8,15 L-18,15 L-18,9"/>
</g>

<g fill="#ffffff" fill-opacity="1" stroke="none" transform="matrix(2.27273,0,0,2.27273,52.2727,0)"
font-family="Noto Sans" font-size="10" font-weight="400" font-style="normal" 
>
<rect x="-18" y="5" width="14" height="1"/>
</g>

<g fill="#ffffff" fill-opacity="1" stroke="none" transform="matrix(0,-2.27273,2.27273,0,52.2727,0)"
font-family="Noto Sans" font-size="10" font-weight="400" font-style="normal" 
>
<rect x="-15" y="-5" width="9" height="1"/>
</g>

<g fill="none" stroke="#000000" stroke-opacity="1" stroke-width="1" stroke-linecap="square" stroke-linejoin="bevel" transform="matrix(1,0,0,1,0,0)"
font-family="Noto Sans" font-size="10" font-weight="400" font-style="normal" 
>
</g>
</g>
</svg>
