<?xml version="1.0" encoding="UTF-8" standalone="no"?>
<svg viewBox="0 0 50 50"
 xmlns="http://www.w3.org/2000/svg" xmlns:xlink="http://www.w3.org/1999/xlink"  version="1.2" baseProfile="tiny">
<title>Qt SVG Document</title>
<desc>Generated with Qt</desc>
<defs>
</defs>
<g fill="none" stroke="black" stroke-width="1" fill-rule="evenodd" stroke-linecap="square" stroke-linejoin="bevel" >

<g fill="none" stroke="none" transform="matrix(2.27273,0,0,2.27273,0,-61.3636)"
font-family="Noto Sans" font-size="10" font-weight="400" font-style="normal" 
>
<rect x="4.87941e-07" y="27" width="22" height="22"/>
</g>

<g fill="#ffffff" fill-opacity="1" stroke="none" transform="matrix(2.27273,0,0,2.27273,56.8182,-61.3636)"
font-family="Noto Sans" font-size="10" font-weight="400" font-style="normal" 
opacity="0.1" >
<path vector-effect="none" fill-rule="evenodd" d="M-25,31.95 C-25,29.2162 -22.7838,27 -20.05,27 L-7.95,27 C-5.21619,27 -3,29.2162 -3,31.95 L-3,44.05 C-3,46.7838 -5.21619,49 -7.95,49 L-20.05,49 C-22.7838,49 -25,46.7838 -25,44.05 L-25,31.95"/>
</g>

<g fill="#ffffff" fill-opacity="1" stroke="none" transform="matrix(2.27273,0,0,2.27273,56.8182,-61.3636)"
font-family="Noto Sans" font-size="10" font-weight="400" font-style="normal" 
>
<path vector-effect="none" fill-rule="nonzero" d="M-21,33 L-21,43 L-7,43 L-7,33 L-21,33 M-20,34 L-8,34 L-8,42 L-20,42 L-20,34"/>
</g>

<g fill="none" stroke="#000000" stroke-opacity="1" stroke-width="1" stroke-linecap="square" stroke-linejoin="bevel" transform="matrix(1,0,0,1,0,0)"
font-family="Noto Sans" font-size="10" font-weight="400" font-style="normal" 
>
</g>
</g>
</svg>
