<?xml version="1.0" encoding="UTF-8" standalone="no"?>
<svg viewBox="0 0 50 50"
 xmlns="http://www.w3.org/2000/svg" xmlns:xlink="http://www.w3.org/1999/xlink"  version="1.2" baseProfile="tiny">
<title>Qt SVG Document</title>
<desc>Generated with Qt</desc>
<defs>
</defs>
<g fill="none" stroke="black" stroke-width="1" fill-rule="evenodd" stroke-linecap="square" stroke-linejoin="bevel" >

<g fill="none" stroke="none" transform="matrix(2.27273,0,0,2.27273,0,-129.545)"
font-family="Noto Sans" font-size="10" font-weight="400" font-style="normal" 
>
<rect x="4.83139e-07" y="57" width="22" height="22"/>
</g>

<g fill="#ffffff" fill-opacity="1" stroke="none" transform="matrix(2.27273,0,0,2.27273,56.8182,-129.545)"
font-family="Noto Sans" font-size="10" font-weight="400" font-style="normal" 
opacity="0.2" >
<path vector-effect="none" fill-rule="evenodd" d="M-25,61.95 C-25,59.2162 -22.7838,57 -20.05,57 L-7.95,57 C-5.21619,57 -3,59.2162 -3,61.95 L-3,74.05 C-3,76.7838 -5.21619,79 -7.95,79 L-20.05,79 C-22.7838,79 -25,76.7838 -25,74.05 L-25,61.95"/>
</g>

<g fill="#ffffff" fill-opacity="1" stroke="none" transform="matrix(2.27273,0,0,2.27273,56.8182,-129.545)"
font-family="Noto Sans" font-size="10" font-weight="400" font-style="normal" 
>
<path vector-effect="none" fill-rule="nonzero" d="M-21,63 L-21,73 L-7,73 L-7,63 L-21,63 M-20,64 L-8,64 L-8,72 L-20,72 L-20,64"/>
</g>

<g fill="none" stroke="#000000" stroke-opacity="1" stroke-width="1" stroke-linecap="square" stroke-linejoin="bevel" transform="matrix(1,0,0,1,0,0)"
font-family="Noto Sans" font-size="10" font-weight="400" font-style="normal" 
>
</g>
</g>
</svg>
