<?xml version="1.0" encoding="UTF-8" standalone="no"?>
<svg viewBox="0 0 50 50"
 xmlns="http://www.w3.org/2000/svg" xmlns:xlink="http://www.w3.org/1999/xlink"  version="1.2" baseProfile="tiny">
<title>Qt SVG Document</title>
<desc>Generated with Qt</desc>
<defs>
</defs>
<g fill="none" stroke="black" stroke-width="1" fill-rule="evenodd" stroke-linecap="square" stroke-linejoin="bevel" >

<g fill="none" stroke="none" transform="matrix(2.27273,0,0,2.27273,-1.41628e-06,-130.682)"
font-family="Noto Sans" font-size="10" font-weight="400" font-style="normal" 
>
<rect x="6.23163e-07" y="57.5" width="22" height="22"/>
</g>

<g fill="#ffffff" fill-opacity="1" stroke="none" transform="matrix(2.27273,0,0,2.27273,56.8182,-131.818)"
font-family="Noto Sans" font-size="10" font-weight="400" font-style="normal" 
opacity="0.2" >
<path vector-effect="none" fill-rule="evenodd" d="M-25,62.95 C-25,60.2162 -22.7838,58 -20.05,58 L-7.95,58 C-5.21619,58 -3,60.2162 -3,62.95 L-3,75.05 C-3,77.7838 -5.21619,80 -7.95,80 L-20.05,80 C-22.7838,80 -25,77.7838 -25,75.05 L-25,62.95"/>
</g>

<g fill="#ffffff" fill-opacity="1" stroke="none" transform="matrix(2.27273,0,0,2.27273,56.8182,-131.818)"
font-family="Noto Sans" font-size="10" font-weight="400" font-style="normal" 
>
<rect x="-21" y="69" width="14" height="1"/>
</g>

<g fill="none" stroke="#000000" stroke-opacity="1" stroke-width="1" stroke-linecap="square" stroke-linejoin="bevel" transform="matrix(1,0,0,1,0,0)"
font-family="Noto Sans" font-size="10" font-weight="400" font-style="normal" 
>
</g>
</g>
</svg>
